<svg width="17" height="18" viewBox="0 0 17 18" fill="none" xmlns="http://www.w3.org/2000/svg">
<path d="M4.25696 3.80908V1.24744C4.25696 1.02097 4.34692 0.803785 4.50706 0.643651C4.66719 0.483517 4.88438 0.393555 5.11084 0.393555H15.3574C15.5839 0.393555 15.8011 0.483517 15.9612 0.643651C16.1213 0.803785 16.2113 1.02097 16.2113 1.24744V13.2018C16.2113 13.4283 16.1213 13.6454 15.9612 13.8056C15.8011 13.9657 15.5839 14.0557 15.3574 14.0557H12.7958V16.6173C12.7958 17.0887 12.4115 17.4712 11.9359 17.4712H1.70129C1.58869 17.4719 1.47706 17.4503 1.37282 17.4077C1.26858 17.3651 1.17379 17.3023 1.09389 17.223C1.01399 17.1436 0.950551 17.0493 0.907226 16.9453C0.863901 16.8414 0.841541 16.7299 0.841431 16.6173L0.843992 4.66297C0.843992 4.19162 1.22824 3.80908 1.70385 3.80908H4.25696ZM2.55176 5.51685L2.5492 15.7634H11.088V5.51685H2.55176ZM5.96472 3.80908H12.7958V12.3479H14.5035V2.10132H5.96472V3.80908Z" fill="#09121F"/>
</svg>
