<svg width="16" height="16" viewBox="0 0 16 16" fill="none" xmlns="http://www.w3.org/2000/svg">
<path d="M4.76489 1.14246H15.8654V2.85022H4.76489V1.14246ZM2.20325 0.288574V2.85022H3.05713V3.7041H0.495483V2.85022H1.34937V1.14246H0.495483V0.288574H2.20325ZM0.495483 9.68128V7.54657H2.20325V7.11963H0.495483V6.26575H3.05713V8.40046H1.34937V8.8274H3.05713V9.68128H0.495483ZM2.20325 14.3776H0.495483V13.5237H2.20325V13.0968H0.495483V12.2429H3.05713V15.6585H0.495483V14.8046H2.20325V14.3776ZM4.76489 7.11963H15.8654V8.8274H4.76489V7.11963ZM4.76489 13.0968H15.8654V14.8046H4.76489V13.0968Z" fill="#fff"/>
</svg>
